<?xml version="1.0" encoding="UTF-8"?>
<svg width="28px" height="16px" viewBox="0 0 28 16" version="1.1" xmlns="http://www.w3.org/2000/svg" xmlns:xlink="http://www.w3.org/1999/xlink">
    <!-- Generator: Sketch 51.2 (57519) - http://www.bohemiancoding.com/sketch -->
    <title>GOA</title>
    <desc>Created with Sketch.</desc>
    <defs></defs>
    <g id="Page-1" stroke="none" stroke-width="1" fill="none" fill-rule="evenodd">
        <g id="Bestände-Icons" transform="translate(-20.000000, -20.000000)">
            <g id="GOA" transform="translate(20.000000, 20.000000)">
                <rect id="Rectangle" fill="#5650DE" x="0" y="0" width="28" height="16"></rect>
                <path d="M10.136,10.528 C10.0453329,10.6240005 9.88400116,10.7239995 9.652,10.828 C9.41999884,10.9320005 9.1640014,11.017333 8.884,11.084 C8.6039986,11.150667 8.34933448,11.184 8.12,11.184 C7.49599688,11.184 6.94800236,11.0626679 6.476,10.82 C6.00399764,10.5773321 5.64000128,10.2413355 5.384,9.812 C5.12799872,9.38266452 5,8.89333608 5,8.344 C5,7.65599656 5.13599864,7.07333572 5.408,6.596 C5.68000136,6.11866428 6.04533104,5.76133452 6.504,5.524 C6.96266896,5.28666548 7.46933056,5.168 8.024,5.168 C8.38133512,5.168 8.71733176,5.2079996 9.032,5.288 C9.34666824,5.3680004 9.6239988,5.47199936 9.864,5.6 L9.488,6.68 C9.33333256,6.59466624 9.12133468,6.51600036 8.852,6.444 C8.58266532,6.37199964 8.35733424,6.336 8.176,6.336 C7.5359968,6.336 7.04666836,6.4959984 6.708,6.816 C6.36933164,7.1360016 6.2,7.61066352 6.2,8.24 C6.2,8.60266848 6.28266584,8.91866532 6.448,9.188 C6.61333416,9.45733468 6.84399852,9.66399928 7.14,9.808 C7.43600148,9.95200072 7.77333144,10.024 8.152,10.024 C8.51466848,10.024 8.78399912,9.97333384 8.96,9.872 L8.96,9.16 L7.944,9.16 L7.944,8.04 L10.136,8.04 L10.136,10.528 Z M11.096,8.184 C11.096,7.650664 11.2306653,7.15200232 11.5,6.688 C11.7693347,6.22399768 12.1346644,5.85466804 12.596,5.58 C13.0573356,5.30533196 13.5573306,5.168 14.096,5.168 C14.6346694,5.168 15.1346644,5.30533196 15.596,5.58 C16.0573356,5.85466804 16.425332,6.22399768 16.7,6.688 C16.974668,7.15200232 17.112,7.650664 17.112,8.184 C17.112,8.72800272 16.974668,9.22933104 16.7,9.688 C16.425332,10.146669 16.0573356,10.5106653 15.596,10.78 C15.1346644,11.0493347 14.6346694,11.184 14.096,11.184 C13.5519973,11.184 13.050669,11.0493347 12.592,10.78 C12.133331,10.5106653 11.7693347,10.146669 11.5,9.688 C11.2306653,9.22933104 11.096,8.72800272 11.096,8.184 Z M12.296,8.184 C12.296,8.52533504 12.3773325,8.83999856 12.54,9.128 C12.7026675,9.41600144 12.9239986,9.64399916 13.204,9.812 C13.4840014,9.98000084 13.794665,10.064 14.136,10.064 C14.4666683,10.064 14.7679986,9.98000084 15.04,9.812 C15.3120014,9.64399916 15.5253326,9.41733476 15.68,9.132 C15.8346674,8.84666524 15.912,8.5306684 15.912,8.184 C15.912,7.83199824 15.8320008,7.51200144 15.672,7.224 C15.5119992,6.93599856 15.294668,6.70800084 15.02,6.54 C14.745332,6.37199916 14.4400017,6.288 14.104,6.288 C13.7679983,6.288 13.462668,6.37199916 13.188,6.54 C12.913332,6.70800084 12.6960008,6.93599856 12.536,7.224 C12.3759992,7.51200144 12.296,7.83199824 12.296,8.184 Z M20.784,9.968 L18.832,9.968 L18.352,11.12 L17.208,11.12 L19.864,5 L19.928,5 L22.584,11.12 L21.24,11.12 L20.784,9.968 Z M20.4,8.992 L19.832,7.56 L19.24,8.992 L20.4,8.992 Z" fill="#FFFFFF"></path>
            </g>
        </g>
    </g>
</svg>