<svg xmlns="http://www.w3.org/2000/svg" viewBox="0 0 28 16"><rect width="28" height="16" style="fill:#5650de"/><path d="M10.136,10.528a1.572,1.572,0,0,1-.484.3,4.35,4.35,0,0,1-.768.256,3.309,3.309,0,0,1-.764.1,3.543,3.543,0,0,1-1.644-.364A2.652,2.652,0,0,1,5.384,9.812,2.811,2.811,0,0,1,5,8.344,3.48,3.48,0,0,1,5.408,6.6,2.647,2.647,0,0,1,6.5,5.524a3.262,3.262,0,0,1,1.52-.356,4.083,4.083,0,0,1,1.008.12,3.7,3.7,0,0,1,.832.312L9.488,6.68a2.931,2.931,0,0,0-.636-.236,2.71,2.71,0,0,0-.676-.108,2.059,2.059,0,0,0-1.468.48A1.867,1.867,0,0,0,6.2,8.24a1.777,1.777,0,0,0,.248.948,1.628,1.628,0,0,0,.692.62,2.284,2.284,0,0,0,1.012.216,1.672,1.672,0,0,0,.808-.152V9.16H7.944V8.04h2.192Zm.96-2.344a2.934,2.934,0,0,1,.4-1.5A3.056,3.056,0,0,1,12.6,5.58a2.937,2.937,0,0,1,3,0,3.125,3.125,0,0,1,1.1,1.108,2.937,2.937,0,0,1,0,3,3.073,3.073,0,0,1-1.1,1.092,2.994,2.994,0,0,1-3,0A3.009,3.009,0,0,1,11.5,9.688,2.921,2.921,0,0,1,11.1,8.184Zm1.2,0a1.884,1.884,0,0,0,.244.944,1.839,1.839,0,0,0,.664.684,1.778,1.778,0,0,0,.932.252,1.686,1.686,0,0,0,.9-.252,1.788,1.788,0,0,0,.64-.68,2.046,2.046,0,0,0-.008-1.908,1.824,1.824,0,0,0-.652-.684,1.791,1.791,0,0,0-1.832,0,1.824,1.824,0,0,0-.652.684A1.943,1.943,0,0,0,12.3,8.184Zm8.488,1.784H18.832l-.48,1.152H17.208L19.864,5h.064l2.656,6.12H21.24ZM20.4,8.992,19.832,7.56,19.24,8.992Z" style="fill:#fff;fill-rule:evenodd"/></svg>