<?xml version="1.0" encoding="UTF-8"?>
<svg width="28px" height="16px" viewBox="0 0 28 16" version="1.1" xmlns="http://www.w3.org/2000/svg" xmlns:xlink="http://www.w3.org/1999/xlink">
    <!-- Generator: Sketch 51.2 (57519) - http://www.bohemiancoding.com/sketch -->
    <title>GFA</title>
    <desc>Created with Sketch.</desc>
    <defs></defs>
    <g id="Page-1" stroke="none" stroke-width="1" fill="none" fill-rule="evenodd">
        <g id="Bestände-Icons" transform="translate(-68.000000, -20.000000)">
            <g id="GFA" transform="translate(68.000000, 20.000000)">
                <rect id="Rectangle" fill="#FF1A1A" x="0" y="0" width="28" height="16"></rect>
                <path d="M11.136,10.528 C11.0453329,10.6240005 10.8840012,10.7239995 10.652,10.828 C10.4199988,10.9320005 10.1640014,11.017333 9.884,11.084 C9.6039986,11.150667 9.34933448,11.184 9.12,11.184 C8.49599688,11.184 7.94800236,11.0626679 7.476,10.82 C7.00399764,10.5773321 6.64000128,10.2413355 6.384,9.812 C6.12799872,9.38266452 6,8.89333608 6,8.344 C6,7.65599656 6.13599864,7.07333572 6.408,6.596 C6.68000136,6.11866428 7.04533104,5.76133452 7.504,5.524 C7.96266896,5.28666548 8.46933056,5.168 9.024,5.168 C9.38133512,5.168 9.71733176,5.2079996 10.032,5.288 C10.3466682,5.3680004 10.6239988,5.47199936 10.864,5.6 L10.488,6.68 C10.3333326,6.59466624 10.1213347,6.51600036 9.852,6.444 C9.58266532,6.37199964 9.35733424,6.336 9.176,6.336 C8.5359968,6.336 8.04666836,6.4959984 7.708,6.816 C7.36933164,7.1360016 7.2,7.61066352 7.2,8.24 C7.2,8.60266848 7.28266584,8.91866532 7.448,9.188 C7.61333416,9.45733468 7.84399852,9.66399928 8.14,9.808 C8.43600148,9.95200072 8.77333144,10.024 9.152,10.024 C9.51466848,10.024 9.78399912,9.97333384 9.96,9.872 L9.96,9.16 L8.944,9.16 L8.944,8.04 L11.136,8.04 L11.136,10.528 Z M16.136,5.232 L16.136,6.352 L13.616,6.352 L13.616,7.688 L15.8,7.688 L15.8,8.808 L13.616,8.808 L13.616,11.12 L12.456,11.12 L12.456,5.232 L16.136,5.232 Z M19.608,9.968 L17.656,9.968 L17.176,11.12 L16.032,11.12 L18.688,5 L18.752,5 L21.408,11.12 L20.064,11.12 L19.608,9.968 Z M19.224,8.992 L18.656,7.56 L18.064,8.992 L19.224,8.992 Z" fill="#FFFFFF"></path>
            </g>
        </g>
    </g>
</svg>