<svg xmlns="http://www.w3.org/2000/svg" viewBox="0 0 28 16"><rect width="28" height="16" style="fill:#ff1a1a"/><path d="M11.136,10.528a1.572,1.572,0,0,1-.484.3,4.35,4.35,0,0,1-.768.256,3.309,3.309,0,0,1-.764.1,3.543,3.543,0,0,1-1.644-.364A2.652,2.652,0,0,1,6.384,9.812,2.811,2.811,0,0,1,6,8.344,3.48,3.48,0,0,1,6.408,6.6,2.647,2.647,0,0,1,7.5,5.524a3.262,3.262,0,0,1,1.52-.356,4.083,4.083,0,0,1,1.008.12,3.7,3.7,0,0,1,.832.312l-.376,1.08a2.931,2.931,0,0,0-.636-.236,2.71,2.71,0,0,0-.676-.108,2.059,2.059,0,0,0-1.468.48A1.867,1.867,0,0,0,7.2,8.24a1.777,1.777,0,0,0,.248.948,1.628,1.628,0,0,0,.692.62,2.284,2.284,0,0,0,1.012.216,1.672,1.672,0,0,0,.808-.152V9.16H8.944V8.04h2.192Zm5-5.3v1.12h-2.52V7.688H15.8v1.12H13.616V11.12h-1.16V5.232Zm3.472,4.736H17.656l-.48,1.152H16.032L18.688,5h.064l2.656,6.12H20.064Zm-.384-.976L18.656,7.56l-.592,1.432Z" style="fill:#fff;fill-rule:evenodd"/></svg>