<?xml version="1.0" encoding="UTF-8"?>
<svg width="28px" height="16px" viewBox="0 0 28 16" version="1.1" xmlns="http://www.w3.org/2000/svg" xmlns:xlink="http://www.w3.org/1999/xlink">
    <!-- Generator: Sketch 51.2 (57519) - http://www.bohemiancoding.com/sketch -->
    <title>GSA</title>
    <desc>Created with Sketch.</desc>
    <defs></defs>
    <g id="Page-1" stroke="none" stroke-width="1" fill="none" fill-rule="evenodd">
        <g id="Bestände-Icons" transform="translate(-116.000000, -20.000000)">
            <g id="GSA" transform="translate(116.000000, 20.000000)">
                <rect id="Rectangle" fill="#E4F200" x="0" y="0" width="28" height="16"></rect>
                <path d="M11.136,10.528 C11.0453329,10.6240005 10.8840012,10.7239995 10.652,10.828 C10.4199988,10.9320005 10.1640014,11.017333 9.884,11.084 C9.6039986,11.150667 9.34933448,11.184 9.12,11.184 C8.49599688,11.184 7.94800236,11.0626679 7.476,10.82 C7.00399764,10.5773321 6.64000128,10.2413355 6.384,9.812 C6.12799872,9.38266452 6,8.89333608 6,8.344 C6,7.65599656 6.13599864,7.07333572 6.408,6.596 C6.68000136,6.11866428 7.04533104,5.76133452 7.504,5.524 C7.96266896,5.28666548 8.46933056,5.168 9.024,5.168 C9.38133512,5.168 9.71733176,5.2079996 10.032,5.288 C10.3466682,5.3680004 10.6239988,5.47199936 10.864,5.6 L10.488,6.68 C10.3333326,6.59466624 10.1213347,6.51600036 9.852,6.444 C9.58266532,6.37199964 9.35733424,6.336 9.176,6.336 C8.5359968,6.336 8.04666836,6.4959984 7.708,6.816 C7.36933164,7.1360016 7.2,7.61066352 7.2,8.24 C7.2,8.60266848 7.28266584,8.91866532 7.448,9.188 C7.61333416,9.45733468 7.84399852,9.66399928 8.14,9.808 C8.43600148,9.95200072 8.77333144,10.024 9.152,10.024 C9.51466848,10.024 9.78399912,9.97333384 9.96,9.872 L9.96,9.16 L8.944,9.16 L8.944,8.04 L11.136,8.04 L11.136,10.528 Z M15.6,6.656 C15.0879974,6.37333192 14.6426686,6.232 14.264,6.232 C14.0079987,6.232 13.809334,6.28266616 13.668,6.384 C13.526666,6.48533384 13.456,6.63733232 13.456,6.84 C13.456,7.0266676 13.5586656,7.19066596 13.764,7.332 C13.9693344,7.47333404 14.242665,7.60799936 14.584,7.736 C14.8613347,7.83733384 15.0986657,7.95333268 15.296,8.084 C15.4933343,8.21466732 15.6573327,8.39466552 15.788,8.624 C15.9186673,8.85333448 15.984,9.14399824 15.984,9.496 C15.984,9.80000152 15.9053341,10.081332 15.748,10.34 C15.5906659,10.598668 15.3600015,10.8039992 15.056,10.956 C14.7519985,11.1080008 14.3893354,11.184 13.968,11.184 C13.6159982,11.184 13.2666684,11.1320005 12.92,11.028 C12.5733316,10.9239995 12.2506682,10.7653344 11.952,10.552 L12.464,9.648 C12.6666677,9.79733408 12.8986654,9.91999952 13.16,10.016 C13.4213346,10.1120005 13.655999,10.16 13.864,10.16 C14.1093346,10.16 14.3226658,10.1080005 14.504,10.004 C14.6853342,9.89999948 14.776,9.73066784 14.776,9.496 C14.776,9.19199848 14.4906695,8.92800112 13.92,8.704 C13.5839983,8.570666 13.3040011,8.44266728 13.08,8.32 C12.8559989,8.19733272 12.6626675,8.02133448 12.5,7.792 C12.3373325,7.56266552 12.256,7.2746684 12.256,6.928 C12.256,6.4213308 12.422665,6.01333488 12.756,5.704 C13.089335,5.39466512 13.5333306,5.2266668 14.088,5.2 C14.5253355,5.2 14.8906652,5.24933284 15.184,5.348 C15.4773348,5.44666716 15.7626653,5.58666576 16.04,5.768 L15.6,6.656 Z M20.032,9.968 L18.08,9.968 L17.6,11.12 L16.456,11.12 L19.112,5 L19.176,5 L21.832,11.12 L20.488,11.12 L20.032,9.968 Z M19.648,8.992 L19.08,7.56 L18.488,8.992 L19.648,8.992 Z" fill="#FFFFFF"></path>
            </g>
        </g>
    </g>
</svg>