<svg xmlns="http://www.w3.org/2000/svg" viewBox="0 0 28 16"><rect width="28" height="16" style="fill:#e4f200"/><path d="M11.136,10.528a1.572,1.572,0,0,1-.484.3,4.35,4.35,0,0,1-.768.256,3.309,3.309,0,0,1-.764.1,3.543,3.543,0,0,1-1.644-.364A2.652,2.652,0,0,1,6.384,9.812,2.811,2.811,0,0,1,6,8.344,3.48,3.48,0,0,1,6.408,6.6,2.647,2.647,0,0,1,7.5,5.524a3.262,3.262,0,0,1,1.52-.356,4.083,4.083,0,0,1,1.008.12,3.7,3.7,0,0,1,.832.312l-.376,1.08a2.931,2.931,0,0,0-.636-.236,2.71,2.71,0,0,0-.676-.108,2.059,2.059,0,0,0-1.468.48A1.867,1.867,0,0,0,7.2,8.24a1.777,1.777,0,0,0,.248.948,1.628,1.628,0,0,0,.692.62,2.284,2.284,0,0,0,1.012.216,1.672,1.672,0,0,0,.808-.152V9.16H8.944V8.04h2.192ZM15.6,6.656a2.861,2.861,0,0,0-1.336-.424,1.012,1.012,0,0,0-.6.152.524.524,0,0,0-.212.456.6.6,0,0,0,.308.492,3.86,3.86,0,0,0,.82.4,3.373,3.373,0,0,1,.712.348,1.57,1.57,0,0,1,.492.54,1.74,1.74,0,0,1,.2.872,1.6,1.6,0,0,1-.236.844,1.642,1.642,0,0,1-.692.616,2.409,2.409,0,0,1-1.088.228,3.631,3.631,0,0,1-1.048-.156,3.282,3.282,0,0,1-.968-.476l.512-.9a2.806,2.806,0,0,0,.7.368,2.067,2.067,0,0,0,.7.144A1.264,1.264,0,0,0,14.5,10a.541.541,0,0,0,.272-.508q0-.456-.856-.792a7.54,7.54,0,0,1-.84-.384,1.738,1.738,0,0,1-.58-.528,1.453,1.453,0,0,1-.244-.864,1.591,1.591,0,0,1,.5-1.224,2.033,2.033,0,0,1,1.332-.5,3.469,3.469,0,0,1,1.1.148,3.771,3.771,0,0,1,.856.42Zm4.432,3.312H18.08L17.6,11.12H16.456L19.112,5h.064l2.656,6.12H20.488Zm-.384-.976L19.08,7.56l-.592,1.432Z" style="fill:#fff;fill-rule:evenodd"/></svg>