<?xml version="1.0" encoding="UTF-8"?>
<svg width="28px" height="16px" viewBox="0 0 28 16" version="1.1" xmlns="http://www.w3.org/2000/svg" xmlns:xlink="http://www.w3.org/1999/xlink">
    <!-- Generator: Sketch 51.2 (57519) - http://www.bohemiancoding.com/sketch -->
    <title>GDA</title>
    <desc>Created with Sketch.</desc>
    <defs></defs>
    <g id="Page-1" stroke="none" stroke-width="1" fill="none" fill-rule="evenodd">
        <g id="Bestände-Icons" transform="translate(-164.000000, -20.000000)">
            <g id="GDA" transform="translate(164.000000, 20.000000)">
                <rect id="Rectangle" fill="#E19B00" x="0" y="0" width="28" height="16"></rect>
                <path d="M11.136,10.528 C11.0453329,10.6240005 10.8840012,10.7239995 10.652,10.828 C10.4199988,10.9320005 10.1640014,11.017333 9.884,11.084 C9.6039986,11.150667 9.34933448,11.184 9.12,11.184 C8.49599688,11.184 7.94800236,11.0626679 7.476,10.82 C7.00399764,10.5773321 6.64000128,10.2413355 6.384,9.812 C6.12799872,9.38266452 6,8.89333608 6,8.344 C6,7.65599656 6.13599864,7.07333572 6.408,6.596 C6.68000136,6.11866428 7.04533104,5.76133452 7.504,5.524 C7.96266896,5.28666548 8.46933056,5.168 9.024,5.168 C9.38133512,5.168 9.71733176,5.2079996 10.032,5.288 C10.3466682,5.3680004 10.6239988,5.47199936 10.864,5.6 L10.488,6.68 C10.3333326,6.59466624 10.1213347,6.51600036 9.852,6.444 C9.58266532,6.37199964 9.35733424,6.336 9.176,6.336 C8.5359968,6.336 8.04666836,6.4959984 7.708,6.816 C7.36933164,7.1360016 7.2,7.61066352 7.2,8.24 C7.2,8.60266848 7.28266584,8.91866532 7.448,9.188 C7.61333416,9.45733468 7.84399852,9.66399928 8.14,9.808 C8.43600148,9.95200072 8.77333144,10.024 9.152,10.024 C9.51466848,10.024 9.78399912,9.97333384 9.96,9.872 L9.96,9.16 L8.944,9.16 L8.944,8.04 L11.136,8.04 L11.136,10.528 Z M12.456,5.232 L14.216,5.232 C14.9680038,5.232 15.5866642,5.37733188 16.072,5.668 C16.5573358,5.95866812 16.9106656,6.33466436 17.132,6.796 C17.3533344,7.25733564 17.464,7.75199736 17.464,8.28 C17.464,8.84533616 17.330668,9.34399784 17.064,9.776 C16.797332,10.2080022 16.4386689,10.5399988 15.988,10.772 C15.5373311,11.0040012 15.0426694,11.12 14.504,11.12 L12.456,11.12 L12.456,5.232 Z M14.304,10 C14.9066697,10 15.3839982,9.84533488 15.736,9.536 C16.0880018,9.22666512 16.264,8.78133624 16.264,8.2 C16.264,7.73066432 16.1666676,7.35733472 15.972,7.08 C15.7773324,6.80266528 15.550668,6.6106672 15.292,6.504 C15.033332,6.3973328 14.7893345,6.344 14.56,6.344 L13.616,6.344 L13.616,10 L14.304,10 Z M21.136,9.968 L19.184,9.968 L18.704,11.12 L17.56,11.12 L20.216,5 L20.28,5 L22.936,11.12 L21.592,11.12 L21.136,9.968 Z M20.752,8.992 L20.184,7.56 L19.592,8.992 L20.752,8.992 Z" fill="#FFFFFF"></path>
            </g>
        </g>
    </g>
</svg>