<svg xmlns="http://www.w3.org/2000/svg" viewBox="0 0 28 16"><rect width="28" height="16" style="fill:#e19b00"/><path d="M11.136,10.528a1.572,1.572,0,0,1-.484.3,4.35,4.35,0,0,1-.768.256,3.309,3.309,0,0,1-.764.1,3.543,3.543,0,0,1-1.644-.364A2.652,2.652,0,0,1,6.384,9.812,2.811,2.811,0,0,1,6,8.344,3.48,3.48,0,0,1,6.408,6.6,2.647,2.647,0,0,1,7.5,5.524a3.262,3.262,0,0,1,1.52-.356,4.083,4.083,0,0,1,1.008.12,3.7,3.7,0,0,1,.832.312l-.376,1.08a2.931,2.931,0,0,0-.636-.236,2.71,2.71,0,0,0-.676-.108,2.059,2.059,0,0,0-1.468.48A1.867,1.867,0,0,0,7.2,8.24a1.777,1.777,0,0,0,.248.948,1.628,1.628,0,0,0,.692.62,2.284,2.284,0,0,0,1.012.216,1.672,1.672,0,0,0,.808-.152V9.16H8.944V8.04h2.192Zm1.32-5.3h1.76a3.564,3.564,0,0,1,1.856.436A2.642,2.642,0,0,1,17.132,6.8a3.39,3.39,0,0,1,.332,1.484,2.787,2.787,0,0,1-.4,1.5,2.688,2.688,0,0,1-1.076,1,3.194,3.194,0,0,1-1.484.348H12.456ZM14.3,10a2.094,2.094,0,0,0,1.432-.464A1.684,1.684,0,0,0,16.264,8.2a1.914,1.914,0,0,0-.292-1.12,1.576,1.576,0,0,0-.68-.576,1.92,1.92,0,0,0-.732-.16h-.944V10Zm6.832-.032H19.184L18.7,11.12H17.56L20.216,5h.064l2.656,6.12H21.592Zm-.384-.976L20.184,7.56l-.592,1.432Z" style="fill:#fff;fill-rule:evenodd"/></svg>