<svg xmlns="http://www.w3.org/2000/svg" xmlns:xlink="http://www.w3.org/1999/xlink" viewBox="0 0 28 16"><defs><clipPath id="a"><rect width="28" height="16" style="fill:none"/></clipPath><clipPath id="b"><rect x="-212" y="-20" width="360" height="56" style="fill:none"/></clipPath></defs><g style="clip-path:url(#a)"><rect width="28" height="16" style="fill:none"/><g style="clip-path:url(#b)"><path d="M0,0H28V16H0Z" style="fill:#006c32;fill-rule:evenodd"/><path d="M19.9,9.792H17.944l-.48,1.152H16.32l2.656-6.12h.064l2.656,6.12H20.352Zm-.384-.976-.568-1.432-.592,1.432Zm-6.5-3.76V9.824h2.768v1.12H11.856V5.056Zm-2.48,5.3a1.572,1.572,0,0,1-.484.3,4.35,4.35,0,0,1-.768.256,3.309,3.309,0,0,1-.764.1,3.543,3.543,0,0,1-1.644-.364A2.652,2.652,0,0,1,5.784,9.636,2.811,2.811,0,0,1,5.4,8.168,3.48,3.48,0,0,1,5.808,6.42,2.647,2.647,0,0,1,6.9,5.348a3.262,3.262,0,0,1,1.52-.356,4.083,4.083,0,0,1,1.008.12,3.7,3.7,0,0,1,.832.312L9.888,6.5a2.931,2.931,0,0,0-.636-.236,2.71,2.71,0,0,0-.676-.108,2.059,2.059,0,0,0-1.468.48A1.867,1.867,0,0,0,6.6,8.064a1.777,1.777,0,0,0,.248.948,1.628,1.628,0,0,0,.692.62,2.284,2.284,0,0,0,1.012.216A1.672,1.672,0,0,0,9.36,9.7V8.984H8.344V7.864h2.192Z" style="fill:#fff"/></g></g></svg>