<?xml version="1.0" encoding="utf-8"?>
<svg width="28px" height="16px" viewbox="0 0 28 16" version="1.1" xmlns:xlink="http://www.w3.org/1999/xlink" xmlns="http://www.w3.org/2000/svg">
  <defs>
    <rect width="360" height="56" id="artboard_1" />
    <rect width="28" height="16" id="slice_1" />
    <clipPath id="clip_1">
      <use xlink:href="#slice_1" clip-rule="evenodd" />
    </clipPath>
    <clipPath id="clip_2">
      <use xlink:href="#artboard_1" clip-rule="evenodd" />
    </clipPath>
  </defs>
  <g id="GZA" clip-path="url(#clip_1)">
    <use xlink:href="#slice_1" stroke="none" fill="none" />
    <g id="Bestände-Icons" clip-path="url(#clip_2)" transform="translate(-260 -20)">
      <g id="GZA" transform="translate(260 20)">
        <path d="M0 0L28 0L28 16L0 16L0 0Z" id="Rectangle" fill="#777777" fill-rule="evenodd" stroke="none" />
        <path d="M15.144 5.032L13.192 5.032L12.712 6.184L11.568 6.184L14.224 0.0640001L14.288 0.0640001L16.944 6.184L15.6 6.184L15.144 5.032ZM14.76 4.056L14.192 2.624L13.6 4.056L14.76 4.056ZM8.048 5.064L11.064 5.064L11.064 6.184L6.056 6.184L9.048 1.416L7.256 1.416C7.07467 1.416 6.9 1.35867 6.732 1.244C6.564 1.12933 6.48 0.994667 6.48 0.84L6.48 0L7.544 0L7.544 0.112C7.544 0.202667 7.55467 0.257333 7.576 0.276C7.59733 0.294667 7.632 0.302667 7.68 0.3C7.728 0.297333 7.768 0.296 7.8 0.296L11.072 0.296L8.048 5.064ZM5.136 5.592C5.04533 5.688 4.884 5.788 4.652 5.892C4.42 5.996 4.164 6.08133 3.884 6.148C3.604 6.21467 3.34933 6.248 3.12 6.248C2.496 6.248 1.948 6.12667 1.476 5.884C1.004 5.64133 0.64 5.30533 0.384 4.876C0.128 4.44667 0 3.95733 2.98023e-08 3.408C0 2.72 0.136 2.13733 0.408 1.66C0.68 1.18267 1.04533 0.825334 1.504 0.588C1.96267 0.350667 2.46933 0.232 3.024 0.232C3.38133 0.232 3.71733 0.272 4.032 0.352C4.34667 0.432 4.624 0.536 4.864 0.664L4.488 1.744C4.33333 1.65867 4.12133 1.58 3.852 1.508C3.58267 1.436 3.35733 1.4 3.176 1.4C2.536 1.4 2.04667 1.56 1.708 1.88C1.36933 2.2 1.2 2.67467 1.2 3.304C1.2 3.66667 1.28267 3.98267 1.448 4.252C1.61333 4.52133 1.844 4.728 2.14 4.872C2.436 5.016 2.77333 5.088 3.152 5.088C3.51467 5.088 3.784 5.03733 3.96 4.936L3.96 4.224L2.944 4.224L2.944 3.104L5.136 3.104L5.136 5.592Z" transform="translate(5.4000015 4.7599998)" id="GZA" fill="#FFFFFF" stroke="none" />
      </g>
    </g>
  </g>
</svg>